<?xml version="1.0" ?><!DOCTYPE svg  PUBLIC '-//W3C//DTD SVG 1.1//EN'  'http://www.w3.org/Graphics/SVG/1.1/DTD/svg11.dtd'><svg height="512px" style="enable-background:new 0 0 512 512;" version="1.1" viewBox="0 0 512 512" width="512px" xml:space="preserve" xmlns="http://www.w3.org/2000/svg" xmlns:xlink="http://www.w3.org/1999/xlink"><g id="_x31_37_x2C__Dice_x2C__gaming_x2C__probability"><g id="XMLID_13694_"><rect height="27.959" id="XMLID_13695_" width="27.959" x="162.804" y="176.783"/><rect height="27.959" id="XMLID_13696_" width="27.959" x="367.835" y="381.814"/><rect height="27.959" id="XMLID_13697_" width="27.959" x="274.639" y="381.814"/><rect height="27.959" id="XMLID_13698_" width="27.958" x="228.042" y="111.546"/><rect height="27.958" id="XMLID_13699_" width="27.958" x="228.042" y="242.021"/><path d="M270.445,307.258c0.404,0,0.809-0.012,1.209-0.033c0.055-0.002,0.109-0.01,0.164-0.012    c0.351-0.021,0.701-0.049,1.05-0.086c0.034-0.002,0.066-0.008,0.101-0.012c0.369-0.041,0.74-0.09,1.107-0.15    c0.014-0.002,0.027-0.004,0.043-0.006c0.385-0.064,0.769-0.137,1.148-0.219c0.006,0,0.01-0.002,0.016-0.004    c0.387-0.084,0.773-0.178,1.155-0.283c0.005,0,0.011-0.002,0.017-0.004c0.379-0.104,0.754-0.217,1.127-0.34    c0.014-0.004,0.025-0.008,0.039-0.014c0.359-0.119,0.718-0.248,1.072-0.385c0.027-0.012,0.053-0.023,0.08-0.033    c0.335-0.131,0.667-0.271,0.994-0.418c0.046-0.021,0.091-0.041,0.137-0.063c0.304-0.137,0.604-0.285,0.9-0.436    c0.067-0.033,0.133-0.066,0.198-0.102c0.27-0.141,0.535-0.287,0.799-0.439c0.087-0.051,0.176-0.1,0.262-0.15    c0.234-0.139,0.464-0.283,0.693-0.432c0.108-0.068,0.218-0.137,0.325-0.209c0.195-0.129,0.386-0.266,0.578-0.402    c0.132-0.094,0.266-0.186,0.396-0.281c0.142-0.105,0.277-0.215,0.415-0.324c0.687-0.535,1.343-1.107,1.964-1.717    c0.056-0.057,0.114-0.109,0.17-0.166c0.19-0.189,0.375-0.387,0.559-0.584c0.077-0.084,0.156-0.166,0.234-0.252    c0.112-0.125,0.221-0.254,0.331-0.383c0.372-0.432,0.731-0.873,1.068-1.328c0.069-0.094,0.134-0.189,0.202-0.283    c0.348-0.486,0.682-0.98,0.989-1.488c0.03-0.051,0.058-0.102,0.087-0.152c0.324-0.545,0.628-1.1,0.903-1.666    c0.006-0.014,0.014-0.027,0.02-0.039c0.286-0.59,0.544-1.193,0.777-1.805c0.014-0.035,0.028-0.07,0.041-0.104    c0.226-0.6,0.424-1.209,0.598-1.824c0.015-0.053,0.03-0.105,0.045-0.158c0.167-0.607,0.308-1.221,0.424-1.84    c0.014-0.067,0.024-0.136,0.037-0.203c0.109-0.615,0.195-1.236,0.255-1.863c0.006-0.066,0.01-0.137,0.016-0.203    c0.054-0.643,0.088-1.289,0.088-1.939v-84.341V97.101c0-12.59-10.242-22.833-22.833-22.833H83.122    c-12.59,0-22.833,10.243-22.833,22.833v187.323c0,12.592,10.243,22.834,22.833,22.834h130.94h55.917H270.445z M134.846,274.639    c0,2.574-2.086,4.66-4.66,4.66H92.907c-2.573,0-4.66-2.086-4.66-4.66v-37.278c0-2.574,2.086-4.66,4.66-4.66h37.278    c2.574,0,4.66,2.086,4.66,4.66V274.639z M134.846,144.165c0,2.573-2.086,4.66-4.66,4.66H92.907c-2.573,0-4.66-2.086-4.66-4.66    v-37.278c0-2.573,2.086-4.66,4.66-4.66h37.278c2.574,0,4.66,2.086,4.66,4.66V144.165z M200.083,209.402    c0,2.573-2.086,4.66-4.66,4.66h-37.278c-2.573,0-4.66-2.086-4.66-4.66v-37.278c0-2.573,2.086-4.66,4.66-4.66h37.278    c2.573,0,4.66,2.086,4.66,4.66V209.402z M265.319,274.639c0,2.574-2.086,4.66-4.659,4.66h-37.279c-2.573,0-4.66-2.086-4.66-4.66    v-37.278c0-2.574,2.086-4.66,4.66-4.66h37.279c2.573,0,4.659,2.086,4.659,4.66V274.639z M265.319,144.165    c0,2.573-2.086,4.66-4.659,4.66h-37.279c-2.573,0-4.66-2.086-4.66-4.66v-37.278c0-2.573,2.086-4.66,4.66-4.66h37.279    c2.573,0,4.659,2.086,4.659,4.66V144.165z" id="XMLID_13700_"/><path d="M292.848,307.463c-0.489,0.475-0.991,0.934-1.507,1.375c-0.105,0.09-0.209,0.186-0.316,0.275    c-0.587,0.488-1.19,0.953-1.81,1.398c-0.14,0.1-0.281,0.195-0.422,0.295c-0.003,0.002-0.006,0.004-0.009,0.006    c-0.158,0.109-0.314,0.223-0.476,0.33c-0.231,0.156-0.469,0.305-0.706,0.453c-0.215,0.137-0.428,0.273-0.645,0.406    c-0.055,0.031-0.108,0.064-0.163,0.096c-0.161,0.096-0.325,0.186-0.487,0.277c-0.303,0.172-0.606,0.342-0.915,0.504    c-0.152,0.08-0.306,0.156-0.458,0.234c-0.099,0.051-0.195,0.102-0.293,0.15c-0.028,0.014-0.056,0.029-0.084,0.043    c-0.234,0.115-0.473,0.223-0.71,0.332c-0.116,0.055-0.233,0.107-0.351,0.158c-0.398,0.18-0.802,0.348-1.208,0.51    c-0.041,0.018-0.081,0.035-0.123,0.051c-0.054,0.021-0.108,0.041-0.163,0.063c-0.454,0.176-0.913,0.34-1.376,0.496    c-0.058,0.018-0.115,0.039-0.173,0.057c-0.487,0.16-0.979,0.309-1.478,0.447c-0.04,0.01-0.079,0.021-0.119,0.033    c-0.507,0.137-1.02,0.264-1.536,0.375c-0.032,0.008-0.064,0.016-0.097,0.023c-0.004,0.002-0.009,0.002-0.014,0.002    c-0.508,0.109-1.02,0.207-1.536,0.293c-0.044,0.006-0.085,0.016-0.128,0.021c-0.254,0.041-0.51,0.074-0.764,0.109    c-0.049,0.006-0.096,0.018-0.145,0.023v18.916h27.959v-27.959h-9.525C293,307.33,292.921,307.393,292.848,307.463z" id="XMLID_13707_"/><rect height="27.959" id="XMLID_13708_" width="27.959" x="367.835" y="307.258"/><rect height="27.958" id="XMLID_13709_" width="27.958" x="97.567" y="242.021"/><path d="M428.878,204.742h-126.28v79.682c0,0.521-0.015,1.038-0.039,1.555c-0.01,0.209-0.029,0.416-0.043,0.623    c-0.02,0.301-0.04,0.602-0.068,0.902c-0.025,0.26-0.058,0.518-0.089,0.777c-0.029,0.24-0.058,0.48-0.092,0.719    c-0.041,0.287-0.088,0.57-0.137,0.854c-0.035,0.209-0.071,0.416-0.11,0.621c-0.058,0.301-0.121,0.6-0.187,0.896    c-0.041,0.188-0.084,0.373-0.129,0.561c-0.073,0.305-0.149,0.609-0.231,0.91c-0.049,0.18-0.101,0.357-0.152,0.535    c-0.088,0.301-0.176,0.602-0.272,0.898c-0.059,0.184-0.124,0.365-0.187,0.551c-0.097,0.283-0.193,0.566-0.299,0.848    c-0.081,0.215-0.168,0.428-0.254,0.643c-0.096,0.242-0.189,0.484-0.293,0.725c-0.128,0.301-0.268,0.6-0.405,0.896h7.647    c2.573,0,4.659,2.086,4.659,4.66v37.279c0,2.572-2.086,4.658-4.659,4.658h-37.278c-2.573,0-4.66-2.086-4.66-4.658v-23.301h-46.598    v98.322c0,12.59,10.243,22.834,22.833,22.834h187.323c12.591,0,22.833-10.244,22.833-22.834V227.575    C451.711,214.985,441.469,204.742,428.878,204.742z M311.917,414.434c0,2.572-2.086,4.658-4.659,4.658h-37.278    c-2.573,0-4.66-2.086-4.66-4.658v-37.279c0-2.574,2.087-4.66,4.66-4.66h37.278c2.573,0,4.659,2.086,4.659,4.66V414.434z     M405.113,414.434c0,2.572-2.086,4.658-4.66,4.658h-37.278c-2.573,0-4.659-2.086-4.659-4.658v-37.279    c0-2.574,2.086-4.66,4.659-4.66h37.278c2.574,0,4.66,2.086,4.66,4.66V414.434z M405.113,339.877c0,2.572-2.086,4.658-4.66,4.658    h-37.278c-2.573,0-4.659-2.086-4.659-4.658v-37.279c0-2.574,2.086-4.66,4.659-4.66h37.278c2.574,0,4.66,2.086,4.66,4.66V339.877z     M405.113,265.319c0,2.573-2.086,4.659-4.66,4.659h-37.278c-2.573,0-4.659-2.086-4.659-4.659v-37.278    c0-2.573,2.086-4.66,4.659-4.66h37.278c2.574,0,4.66,2.086,4.66,4.66V265.319z" id="XMLID_13710_"/><rect height="27.959" id="XMLID_13716_" width="27.958" x="97.567" y="111.546"/><rect height="27.959" id="XMLID_13717_" width="27.959" x="367.835" y="232.701"/></g></g><g id="Layer_1"/></svg>